<svg xmlns="http://www.w3.org/2000/svg" version="1.1" xmlns:xlink="http://www.w3.org/1999/xlink" xmlns:svgjs="http://svgjs.dev/svgjs" width="1000" height="1000" viewBox="0 0 1000 1000"><rect width="1000" height="1000" fill="#ffffff"></rect><g transform="matrix(0.7,0,0,0.7,149.57575884145155,378.1173102006237)"><svg viewBox="0 0 396 138" data-background-color="#ffffff" preserveAspectRatio="xMidYMid meet" height="348" width="1000" xmlns="http://www.w3.org/2000/svg" xmlns:xlink="http://www.w3.org/1999/xlink"><g id="tight-bounds" transform="matrix(1,0,0,1,0.2399992839788183,0.0468439750161167)"><svg viewBox="0 0 395.52 137.90607648659707" height="137.90607648659707" width="395.52"><g><svg viewBox="0 0 654.3792551518752 228.1626102655161" height="137.90607648659707" width="395.52"><g transform="matrix(1,0,0,1,258.8592551518753,61.46457880492088)"><svg viewBox="0 0 395.52 105.23345265567433" height="105.23345265567433" width="395.52"><g id="textblocktransform"><svg viewBox="0 0 395.52 105.23345265567433" height="105.23345265567433" width="395.52" id="textblock"><g><svg viewBox="0 0 395.52 65.0143277723258" height="65.0143277723258" width="395.52"><g transform="matrix(1,0,0,1,0,0)"><svg width="395.52" viewBox="2.75 -32.75 203.77999877929688 33.5" height="65.0143277723258" data-palette-color="#202046"><path d="M22.15-22.5Q20.6-22.5 19.75-23.45 18.9-24.4 18.9-25.93 18.9-27.45 19.55-28.3L19.55-28.3Q17.95-29.8 15.15-29.8L15.15-29.8Q11.05-29.8 8.95-26.38 6.85-22.95 6.85-16.3L6.85-16.3Q6.85-2.95 15.15-2.95L15.15-2.95Q17.15-2.95 19.23-3.93 21.3-4.9 22.75-6.5L22.75-6.5Q24.3-5.25 24.75-2.55L24.75-2.55Q20.3 0.75 15.15 0.75L15.15 0.75Q8.6 0.75 5.68-3.3 2.75-7.35 2.75-15.9L2.75-15.9Q2.75-32.75 15.15-32.75L15.15-32.75Q18.9-32.75 21.83-30.78 24.75-28.8 24.75-25.65 24.75-22.5 22.15-22.5L22.15-22.5ZM39.25-16.55L39.25-16.55Q40.7-15.1 42.72-15.1 44.75-15.1 46-16.35L46-16.35Q48-18.4 48-22.45L48-22.45Q48-29.9 41.4-29.9L41.4-29.9Q39.3-29.9 36.7-28.8L36.7-28.8Q36.35-24.85 36.35-16.5 36.35-8.15 36.8-2.9L36.8-2.9 39.65-2.7Q39.75-1.9 39.75-1.25 39.75-0.6 39.6 0.05L39.6 0.05Q37.8 0 34.92 0 32.05 0 30.5 0.05L30.5 0.05Q30.35-0.7 30.35-1.28 30.35-1.85 30.45-2.75L30.45-2.75 32.2-2.9Q32.6-8.25 32.6-16.57 32.6-24.9 32.1-28.95L32.1-28.95 30.2-29.1Q30.05-29.8 30.05-30.65 30.05-31.5 30.1-31.9L30.1-31.9Q32.2-32 35.85-32.35L35.85-32.35Q38.4-32.75 41.45-32.75L41.45-32.75Q47.35-32.75 49.85-30.08 52.35-27.4 52.35-22.58 52.35-17.75 49.82-14.75 47.3-11.75 42.15-11.75L42.15-11.75Q40.15-11.75 38.2-12.5L38.2-12.5Q38.2-13.85 38.55-15 38.9-16.15 39.25-16.55ZM65.8-16.55L65.8-16.55Q67.25-15.1 69.27-15.1 71.3-15.1 72.55-16.35L72.55-16.35Q74.55-18.4 74.55-22.45L74.55-22.45Q74.55-29.9 67.94-29.9L67.94-29.9Q65.84-29.9 63.24-28.8L63.24-28.8Q62.89-24.85 62.89-16.5 62.89-8.15 63.34-2.9L63.34-2.9 66.19-2.7Q66.3-1.9 66.3-1.25 66.3-0.6 66.14 0.05L66.14 0.05Q64.34 0 61.47 0 58.59 0 57.05 0.05L57.05 0.05Q56.89-0.7 56.89-1.28 56.89-1.85 56.99-2.75L56.99-2.75 58.74-2.9Q59.14-8.25 59.14-16.57 59.14-24.9 58.64-28.95L58.64-28.95 56.74-29.1Q56.59-29.8 56.59-30.65 56.59-31.5 56.64-31.9L56.64-31.9Q58.74-32 62.39-32.35L62.39-32.35Q64.94-32.75 68-32.75L68-32.75Q73.89-32.75 76.39-30.08 78.89-27.4 78.89-22.58 78.89-17.75 76.37-14.75 73.84-11.75 68.69-11.75L68.69-11.75Q66.69-11.75 64.75-12.5L64.75-12.5Q64.75-13.85 65.09-15 65.44-16.15 65.8-16.55ZM83.19-9.8L83.19-9.8Q82.89-10.5 82.89-11.35 82.89-12.2 83.19-13.4L83.19-13.4Q92.64-14.05 94.29-14.45L94.29-14.45Q94.59-13.75 94.59-12.9 94.59-12.05 94.29-10.85L94.29-10.85Q84.84-10.2 83.19-9.8ZM111.69-28.7L111.69-28.7Q111.34-24.8 111.34-16.18 111.34-7.55 111.74-2.9L111.74-2.9 114.64-2.6Q114.74-1.8 114.74-1.33 114.74-0.85 114.59 0.05L114.59 0.05Q112.79 0 109.42 0 106.04 0 104.49 0.05L104.49 0.05Q104.34-0.7 104.34-1.2 104.34-1.7 104.44-2.6L104.44-2.6 107.19-2.9Q107.59-8.25 107.59-16.48 107.59-24.7 107.14-28.7L107.14-28.7Q105.19-28.65 101.74-28.35L101.74-28.35 101.59-24.65Q100.79-24.5 100.09-24.5 99.39-24.5 98.79-24.55L98.79-24.55Q98.64-28.65 98.34-32.15L98.34-32.15 98.59-32.4Q102.29-31.95 110.44-31.95 118.59-31.95 120.64-32.4L120.64-32.4 120.89-32.15Q120.54-28.3 120.44-25.05L120.44-25.05Q119.84-25 119.17-25 118.49-25 117.64-25.15L117.64-25.15 117.49-28.5Q115.39-28.6 111.69-28.7ZM125.04-2.9L127.04-3.05Q127.49-8.15 127.49-16.57 127.49-25 126.99-28.95L126.99-28.95 125.04-29.1Q124.89-29.7 124.89-30.65 124.89-31.6 124.94-31.9L124.94-31.9Q128.14-31.95 130.64-32.35 133.14-32.75 135.94-32.75L135.94-32.75Q140.99-32.75 143.61-30.43 146.24-28.1 146.24-23.4 146.24-18.7 143.04-16.3L143.04-16.3Q148.39-14.15 148.39-8.65L148.39-8.65Q148.39-4 145.49-1.63 142.59 0.75 136.94 0.75L136.94 0.75Q133.79 0.75 131.09 0.35L131.09 0.35Q126.34 0 124.94-0.1L124.94-0.1Q124.89-0.4 124.89-1.3 124.89-2.2 125.04-2.9L125.04-2.9ZM134.14-18.6L134.14-18.6Q135.24-17.85 137.36-17.85 139.49-17.85 140.69-19.28 141.89-20.7 141.89-23.58 141.89-26.45 140.29-28.18 138.69-29.9 135.74-29.9L135.74-29.9Q133.89-29.9 131.64-29L131.64-29Q131.24-24.85 131.24-16.9 131.24-8.95 131.64-3.85L131.64-3.85Q134.59-2.7 136.99-2.7L136.99-2.7Q144.04-2.7 144.04-8.65L144.04-8.65Q144.04-13.65 139.39-14.75L139.39-14.75Q137.89-14.5 136.46-14.5 135.04-14.5 133.09-15.25L133.09-15.25Q133.09-17.55 134.14-18.6ZM153.13-16.35L153.13-16.35Q153.13-32.75 165.41-32.75 177.69-32.75 177.69-16.35L177.69-16.35Q177.69-13.35 177.46-11.1 177.23-8.85 176.46-6.5 175.69-4.15 174.38-2.65 173.08-1.15 170.81-0.2 168.53 0.75 165.41 0.75 162.28 0.75 160.01-0.2 157.73-1.15 156.44-2.65 155.13-4.15 154.36-6.5 153.58-8.85 153.36-11.1 153.13-13.35 153.13-16.35ZM161.19-4.05L161.19-4.05Q162.88-2.95 165.41-2.95 167.94-2.95 169.66-4.05 171.38-5.15 172.23-7.2L172.23-7.2Q173.73-10.75 173.73-16.3L173.73-16.3Q173.73-29.8 165.41-29.8 157.08-29.8 157.08-16.3L157.08-16.3Q157.08-6.65 161.19-4.05ZM187.98-2.9L189.83-2.75Q189.93-2.35 189.93-1.58 189.93-0.8 189.78 0.05L189.78 0.05Q187.98 0 185.43 0 182.88 0 181.33 0.05L181.33 0.05Q181.18-0.7 181.18-1.23 181.18-1.75 181.28-2.75L181.28-2.75 182.98-2.9Q188.38-10.75 191.58-16.55L191.58-16.55Q188.13-22.55 183.78-29.2L183.78-29.2 181.98-29.35Q181.88-30.15 181.88-30.73 181.88-31.3 182.03-32.15L182.03-32.15Q183.78-32.1 186.51-32.1 189.23-32.1 191.13-32.15L191.13-32.15Q191.28-31.4 191.28-30.83 191.28-30.25 191.18-29.35L191.18-29.35 189.38-29.2Q191.68-24.7 194.38-19.75L194.38-19.75Q196.78-23.55 199.03-29.2L199.03-29.2 197.18-29.35Q197.08-29.75 197.08-30.53 197.08-31.3 197.23-32.15L197.23-32.15Q199.03-32.1 201.58-32.1 204.13-32.1 205.68-32.15L205.68-32.15Q205.83-31.4 205.83-30.88 205.83-30.35 205.73-29.35L205.73-29.35 203.93-29.2Q199.38-22.5 196.13-16.6L196.13-16.6Q200.08-9.65 204.58-2.9L204.58-2.9 206.43-2.75Q206.53-1.95 206.53-1.38 206.53-0.8 206.38 0.05L206.38 0.05Q204.63 0 201.91 0 199.18 0 197.28 0.05L197.28 0.05Q197.13-0.7 197.13-1.28 197.13-1.85 197.23-2.75L197.23-2.75 198.98-2.9Q196.33-8.1 193.43-13.25L193.43-13.25Q189.98-7.55 187.98-2.9L187.98-2.9Z" opacity="1" transform="matrix(1,0,0,1,0,0)" fill="#202046" class="wordmark-text-0" data-fill-palette-color="primary" id="text-0"></path></svg></g></svg></g><g transform="matrix(1,0,0,1,39.55199999999999,80.36265021550538)"><svg viewBox="0 0 316.416 24.870802440168937" height="24.870802440168937" width="316.416"><g transform="matrix(1,0,0,1,0,0)"><svg width="316.416" viewBox="2.75 -32.75 426.1600036621094 33.5" height="24.870802440168937" data-palette-color="#0074d9"><path d="M35.75-31.9Q35.8-31.5 35.8-30.65 35.8-29.8 35.65-29.1L35.65-29.1 33.75-28.95Q33.7-27.55 33.7-24.8L33.7-24.8Q33.7-12.55 34.8-2.9L34.8-2.9 36.65-2.75Q36.75-1.95 36.75-1.38 36.75-0.8 36.6 0.05L36.6 0.05Q34.85 0 32.55 0 30.25 0 28.55 0.05L28.55 0.05Q28.4-0.7 28.4-1.28 28.4-1.85 28.5-2.75L28.5-2.75 30.15-2.9Q30.25-6.5 30.25-11.13 30.25-15.75 29.8-24L29.8-24Q29.3-22.95 27.3-18.9L27.3-18.9Q22.85-10.05 21.2-5.85L21.2-5.85Q20.2-5.45 19.07-5.45 17.95-5.45 17.55-5.5L17.55-5.5Q15.8-9.7 12.58-15.68 9.35-21.65 8.75-22.75L8.75-22.75Q8.35-15.65 8.35-10.73 8.35-5.8 8.45-2.9L8.45-2.9 10.3-2.75Q10.4-1.95 10.4-1.38 10.4-0.8 10.25 0.05L10.25 0.05Q8.65 0 6.55 0 4.45 0 2.9 0.05L2.9 0.05Q2.75-0.7 2.75-1.28 2.75-1.85 2.85-2.75L2.85-2.75 4.6-2.9Q5.65-12 5.65-24.45L5.65-24.45Q5.65-26.85 5.5-28.95L5.5-28.95 3.65-29.1Q3.5-29.8 3.5-30.65 3.5-31.5 3.55-31.9L3.55-31.9Q7.65-32 9.75-32.15L9.75-32.15Q10.6-27.55 19.85-10.5L19.85-10.5Q27.5-25.45 28.8-32.15L28.8-32.15Q30.65-32 35.75-31.9L35.75-31.9ZM47.2-29.1Q47.05-29.7 47.05-30.65 47.05-31.6 47.1-31.9L47.1-31.9Q51.5-32.45 53.65-32.45 55.8-32.45 57.3-31.95L57.3-31.95Q58.5-22.55 65.65-2.9L65.65-2.9 67.5-2.75Q67.6-1.65 67.6-1.23 67.6-0.8 67.45 0.05L67.45 0.05Q66.05 0 63.1 0 60.15 0 59 0.05L59 0.05Q58.85-0.7 58.85-1.38 58.85-2.05 58.95-2.75L58.95-2.75 60.7-2.9Q60.45-4.1 59.9-6.38 59.35-8.65 59.3-8.9L59.3-8.9Q56.45-9.05 53.12-9.05 49.8-9.05 46.9-8.85L46.9-8.85 45.5-2.9 47.4-2.75Q47.5-1.65 47.5-1.23 47.5-0.8 47.35 0.05L47.35 0.05Q46.15 0 43.42 0 40.7 0 39.6 0.05L39.6 0.05Q39.45-0.7 39.45-1.38 39.45-2.05 39.55-2.75L39.55-2.75 41.3-2.9Q47.3-19.35 49.2-28.95L49.2-28.95 47.2-29.1ZM47.8-12.35L47.8-12.35Q49.5-12.3 52.9-12.3 56.3-12.3 58.4-12.45L58.4-12.45Q56.05-21.35 53.45-28.9L53.45-28.9 53.15-28.9Q50.2-21.75 47.8-12.35ZM86.65-29.15L84.8-29.3Q84.7-30.4 84.7-30.8 84.7-31.2 84.84-32.1L84.84-32.1Q86.05-32.05 89.02-32.05 92-32.05 93.09-32.1L93.09-32.1Q93.25-31.35 93.25-30.98 93.25-30.6 93.15-29.3L93.15-29.3 91.3-29.15 81.55-17.6Q86.59-9.9 88.25-7.55 89.9-5.2 91.65-3.15L91.65-3.15 94-3Q94.09-2.2 94.09-1.5 94.09-0.8 93.95-0.1L93.95-0.1 88 0.15Q87.65-1.5 81.75-10.2L81.75-10.2Q79.25-13.9 79-14.35L79-14.35 76.84-11.6Q76.95-6.5 77.25-2.9L77.25-2.9 79.05-2.75Q79.15-1.65 79.15-1.23 79.15-0.8 79 0.05L79 0.05Q77.59 0 74.89 0 72.2 0 70.95 0.05L70.95 0.05Q70.8-0.7 70.8-1.38 70.8-2.05 70.89-2.75L70.89-2.75 72.64-2.9Q73.05-8.4 73.05-16.78 73.05-25.15 72.59-29.2L72.59-29.2 70.89-29.35Q70.8-30.45 70.8-30.85 70.8-31.25 70.95-32.15L70.95-32.15Q72.3-32.1 75.02-32.1 77.75-32.1 79-32.15L79-32.15Q79.15-31.4 79.15-31.03 79.15-30.65 79.05-29.35L79.05-29.35 77.15-29.2Q76.8-24.8 76.8-15.95L76.8-15.95Q84.75-26.1 86.65-29.15L86.65-29.15ZM112.44-18.4L112.59-20.3Q113.69-20.4 114.09-20.4 114.49-20.4 115.39-20.25L115.39-20.25Q115.34-18.7 115.34-16.25 115.34-13.8 115.39-13.05L115.39-13.05Q114.64-12.9 113.94-12.9 113.24-12.9 112.59-13L112.59-13 112.44-14.75Q109.74-14.85 107.99-14.85 106.24-14.85 103.54-14.75L103.54-14.75Q103.54-8.2 103.89-3.8L103.89-3.8Q105.64-3.65 108.87-3.65 112.09-3.65 113.94-3.9L113.94-3.9 114.09-7.3Q114.94-7.45 115.67-7.45 116.39-7.45 116.89-7.4L116.89-7.4Q116.94-3.5 117.34 0L117.34 0 117.09 0.25Q114.64 0 106.37 0 98.09 0 97.64 0.05L97.64 0.05Q97.49-0.7 97.49-1.38 97.49-2.05 97.59-2.75L97.59-2.75 99.34-2.9Q99.79-10.65 99.79-16.93 99.79-23.2 99.19-29.05L99.19-29.05 97.49-29.2Q97.39-29.85 97.39-30.55 97.39-31.25 97.54-32L97.54-32Q98.79-31.95 106.69-31.95 114.59-31.95 116.84-32.4L116.84-32.4 117.09-32.15Q116.69-27.75 116.64-25.05L116.64-25.05Q116.14-25 115.39-25 114.64-25 113.84-25.15L113.84-25.15 113.69-28.55Q111.14-28.7 108.39-28.7 105.64-28.7 103.84-28.55L103.84-28.55Q103.54-25.4 103.54-18.25L103.54-18.25Q104.34-18.2 106.79-18.2 109.24-18.2 112.44-18.4L112.44-18.4ZM153.74-22.5Q152.19-22.5 151.34-23.45 150.49-24.4 150.49-25.93 150.49-27.45 151.14-28.3L151.14-28.3Q149.54-29.8 146.74-29.8L146.74-29.8Q142.64-29.8 140.54-26.38 138.44-22.95 138.44-16.3L138.44-16.3Q138.44-2.95 146.74-2.95L146.74-2.95Q148.74-2.95 150.81-3.93 152.89-4.9 154.34-6.5L154.34-6.5Q155.89-5.25 156.34-2.55L156.34-2.55Q151.89 0.75 146.74 0.75L146.74 0.75Q140.19 0.75 137.26-3.3 134.34-7.35 134.34-15.9L134.34-15.9Q134.34-32.75 146.74-32.75L146.74-32.75Q150.49-32.75 153.41-30.78 156.34-28.8 156.34-25.65 156.34-22.5 153.74-22.5L153.74-22.5ZM171.34-26.7L171.34-26.7Q172.44-27.05 173.74-27.05 175.04-27.05 175.74-26.9L175.74-26.9Q175.49-26.05 175.26-22.88 175.04-19.7 175.04-18L175.04-18Q176.74-18 179.91-18.23 183.09-18.45 183.94-18.7L183.94-18.7Q184.09-18 184.09-16.7 184.09-15.4 183.74-14.3L183.74-14.3Q179.94-14.65 175.04-14.75L175.04-14.75Q175.04-9.35 175.49-6.05L175.49-6.05Q174.39-5.7 173.09-5.7 171.79-5.7 171.09-5.85L171.09-5.85Q171.64-8.05 171.79-14.75L171.79-14.75Q165.09-14.6 162.89-14.05L162.89-14.05Q162.74-14.75 162.74-16.05 162.74-17.35 163.09-18.45L163.09-18.45Q166.39-18 171.79-18L171.79-18Q171.69-22.9 171.34-26.7ZM201.38-26.7L201.38-26.7Q202.48-27.05 203.78-27.05 205.08-27.05 205.78-26.9L205.78-26.9Q205.53-26.05 205.31-22.88 205.08-19.7 205.08-18L205.08-18Q206.78-18 209.96-18.23 213.13-18.45 213.98-18.7L213.98-18.7Q214.13-18 214.13-16.7 214.13-15.4 213.78-14.3L213.78-14.3Q209.98-14.65 205.08-14.75L205.08-14.75Q205.08-9.35 205.53-6.05L205.53-6.05Q204.43-5.7 203.13-5.7 201.83-5.7 201.13-5.85L201.13-5.85Q201.68-8.05 201.83-14.75L201.83-14.75Q195.13-14.6 192.93-14.05L192.93-14.05Q192.78-14.75 192.78-16.05 192.78-17.35 193.13-18.45L193.13-18.45Q196.43-18 201.83-18L201.83-18Q201.73-22.9 201.38-26.7ZM244.93 0.75L244.93 0.75Q241.78 0.75 239.05 0.4 236.33 0.05 233.28-0.1L233.28-0.1Q233.23-0.4 233.23-1.3 233.23-2.2 233.38-2.9L233.38-2.9 235.38-3.05Q235.83-8.15 235.83-16.57 235.83-25 235.33-28.95L235.33-28.95 233.38-29.1Q233.23-29.7 233.23-30.65 233.23-31.6 233.28-31.9L233.28-31.9Q236.58-31.95 239.23-32.35 241.88-32.75 244.93-32.75L244.93-32.75Q251.28-32.75 254.68-28.48 258.08-24.2 258.08-16.25L258.08-16.25Q258.08 0.75 244.93 0.75ZM244.93-2.8L244.93-2.8Q249.23-2.8 251.5-6.25 253.78-9.7 253.78-16.23 253.78-22.75 251.48-26.28 249.18-29.8 244.88-29.8L244.88-29.8Q242.38-29.8 239.93-28.85L239.93-28.85Q239.58-24.6 239.58-16.5 239.58-8.4 239.98-3.85L239.98-3.85Q242.33-2.8 244.93-2.8ZM278.63-18.4L278.78-20.3Q279.88-20.4 280.28-20.4 280.68-20.4 281.58-20.25L281.58-20.25Q281.53-18.7 281.53-16.25 281.53-13.8 281.58-13.05L281.58-13.05Q280.83-12.9 280.13-12.9 279.43-12.9 278.78-13L278.78-13 278.63-14.75Q275.93-14.85 274.18-14.85 272.43-14.85 269.73-14.75L269.73-14.75Q269.73-8.2 270.08-3.8L270.08-3.8Q271.83-3.65 275.05-3.65 278.28-3.65 280.13-3.9L280.13-3.9 280.28-7.3Q281.13-7.45 281.85-7.45 282.58-7.45 283.08-7.4L283.08-7.4Q283.13-3.5 283.53 0L283.53 0 283.28 0.25Q280.83 0 272.55 0 264.28 0 263.83 0.05L263.83 0.05Q263.68-0.7 263.68-1.38 263.68-2.05 263.78-2.75L263.78-2.75 265.53-2.9Q265.98-10.65 265.98-16.93 265.98-23.2 265.38-29.05L265.38-29.05 263.68-29.2Q263.58-29.85 263.58-30.55 263.58-31.25 263.73-32L263.73-32Q264.98-31.95 272.88-31.95 280.78-31.95 283.03-32.4L283.03-32.4 283.28-32.15Q282.88-27.75 282.83-25.05L282.83-25.05Q282.33-25 281.58-25 280.83-25 280.03-25.15L280.03-25.15 279.88-28.55Q277.33-28.7 274.58-28.7 271.83-28.7 270.03-28.55L270.03-28.55Q269.73-25.4 269.73-18.25L269.73-18.25Q270.53-18.2 272.98-18.2 275.43-18.2 278.63-18.4L278.63-18.4ZM288.27-29.2L286.42-29.35Q286.32-30.15 286.32-30.73 286.32-31.3 286.47-32.15L286.47-32.15Q288.22-32.1 290.85-32.1 293.47-32.1 295.37-32.15L295.37-32.15Q295.52-31.4 295.52-30.83 295.52-30.25 295.42-29.35L295.42-29.35 293.67-29.2Q294.72-23.5 296.72-16.43 298.72-9.35 300.77-4.35L300.77-4.35 301.07-4.35Q302.87-8.75 304.95-16.4 307.02-24.05 307.87-29.2L307.87-29.2 306.02-29.35Q305.92-29.75 305.92-30.53 305.92-31.3 306.07-32.15L306.07-32.15Q307.87-32.1 310.42-32.1 312.97-32.1 314.52-32.15L314.52-32.15Q314.67-31.4 314.67-30.88 314.67-30.35 314.57-29.35L314.57-29.35 312.82-29.2Q310.57-23.2 307.4-13.8 304.22-4.4 303.12 0L303.12 0Q301.32 0.45 299.85 0.45 298.37 0.45 297.92 0.4L297.92 0.4Q292.77-18.05 288.27-29.2L288.27-29.2ZM344.52-18.4L344.67-20.3Q345.77-20.4 346.17-20.4 346.57-20.4 347.47-20.25L347.47-20.25Q347.42-18.7 347.42-16.25 347.42-13.8 347.47-13.05L347.47-13.05Q346.72-12.9 346.02-12.9 345.32-12.9 344.67-13L344.67-13 344.52-14.75Q341.82-14.85 340.07-14.85 338.32-14.85 335.62-14.75L335.62-14.75Q335.62-8.2 335.97-3.8L335.97-3.8Q337.72-3.65 340.94-3.65 344.17-3.65 346.02-3.9L346.02-3.9 346.17-7.3Q347.02-7.45 347.74-7.45 348.47-7.45 348.97-7.4L348.97-7.4Q349.02-3.5 349.42 0L349.42 0 349.17 0.25Q346.72 0 338.44 0 330.17 0 329.72 0.05L329.72 0.05Q329.57-0.7 329.57-1.38 329.57-2.05 329.67-2.75L329.67-2.75 331.42-2.9Q331.87-10.65 331.87-16.93 331.87-23.2 331.27-29.05L331.27-29.05 329.57-29.2Q329.47-29.85 329.47-30.55 329.47-31.25 329.62-32L329.62-32Q330.87-31.95 338.77-31.95 346.67-31.95 348.92-32.4L348.92-32.4 349.17-32.15Q348.77-27.75 348.72-25.05L348.72-25.05Q348.22-25 347.47-25 346.72-25 345.92-25.15L345.92-25.15 345.77-28.55Q343.22-28.7 340.47-28.7 337.72-28.7 335.92-28.55L335.92-28.55Q335.62-25.4 335.62-18.25L335.62-18.25Q336.42-18.2 338.87-18.2 341.32-18.2 344.52-18.4L344.52-18.4ZM359.87-29.1Q359.72-29.7 359.72-30.65 359.72-31.6 359.77-31.9L359.77-31.9Q364.17-32.45 366.32-32.45 368.47-32.45 369.97-31.95L369.97-31.95Q371.17-22.55 378.32-2.9L378.32-2.9 380.17-2.75Q380.27-1.65 380.27-1.23 380.27-0.8 380.12 0.05L380.12 0.05Q378.72 0 375.77 0 372.82 0 371.67 0.05L371.67 0.05Q371.52-0.7 371.52-1.38 371.52-2.05 371.62-2.75L371.62-2.75 373.37-2.9Q373.12-4.1 372.57-6.38 372.02-8.65 371.97-8.9L371.97-8.9Q369.12-9.05 365.79-9.05 362.47-9.05 359.57-8.85L359.57-8.85 358.17-2.9 360.07-2.75Q360.17-1.65 360.17-1.23 360.17-0.8 360.02 0.05L360.02 0.05Q358.82 0 356.09 0 353.37 0 352.27 0.05L352.27 0.05Q352.12-0.7 352.12-1.38 352.12-2.05 352.22-2.75L352.22-2.75 353.97-2.9Q359.97-19.35 361.87-28.95L361.87-28.95 359.87-29.1ZM360.47-12.35L360.47-12.35Q362.17-12.3 365.57-12.3 368.97-12.3 371.07-12.45L371.07-12.45Q368.72-21.35 366.12-28.9L366.12-28.9 365.82-28.9Q362.87-21.75 360.47-12.35ZM384.41-9.75Q385.96-9.75 386.81-8.8 387.66-7.85 387.66-6.48 387.66-5.1 387.21-4.25L387.21-4.25Q389.41-2.45 392.29-2.45 395.16-2.45 396.61-3.78 398.06-5.1 398.06-7.4 398.06-9.7 396.46-11.35 394.86-13 392.59-14.1 390.31-15.2 388.06-16.43 385.81-17.65 384.21-19.7 382.61-21.75 382.61-24.55L382.61-24.55Q382.61-28.4 385.16-30.58 387.71-32.75 391.71-32.75 395.71-32.75 398.64-30.85 401.56-28.95 401.56-25.73 401.56-22.5 398.96-22.5L398.96-22.5Q397.41-22.5 396.56-23.45 395.71-24.4 395.71-25.9 395.71-27.4 396.31-28.2L396.31-28.2Q394.56-29.8 392.01-29.8 389.46-29.8 388.19-28.5 386.91-27.2 386.91-25.25 386.91-23.3 388.06-21.93 389.21-20.55 390.91-19.68 392.61-18.8 394.61-17.68 396.61-16.55 398.31-15.45 400.01-14.35 401.16-12.48 402.31-10.6 402.31-8.2L402.31-8.2Q402.31-4.25 399.59-1.75 396.86 0.75 392.61 0.75 388.36 0.75 385.09-1.23 381.81-3.2 381.81-6.75L381.81-6.75Q381.81-9.75 384.41-9.75L384.41-9.75ZM422.46-29.2L420.61-29.35Q420.51-30.15 420.51-30.73 420.51-31.3 420.66-32.15L420.66-32.15Q422.26-32.1 424.64-32.1 427.01-32.1 428.76-32.15L428.76-32.15Q428.91-31.3 428.91-30.58 428.91-29.85 428.81-29.35L428.81-29.35 427.06-29.2Q420.21-14.45 418.96-9.7L418.96-9.7Q419.11-5.9 419.36-2.9L419.36-2.9 421.16-2.75Q421.26-1.95 421.26-1.38 421.26-0.8 421.11 0.05L421.11 0.05Q419.36 0 417.06 0 414.76 0 413.06 0.05L413.06 0.05Q412.91-0.7 412.91-1.28 412.91-1.85 413.01-2.75L413.01-2.75 414.76-2.9Q415.06-7.25 415.11-9.8L415.11-9.8Q413.81-14.1 408.11-25.5L408.11-25.5Q406.51-28.6 406.21-29.2L406.21-29.2 404.36-29.35Q404.26-30.15 404.26-30.73 404.26-31.3 404.41-32.15L404.41-32.15Q406.16-32.1 408.74-32.1 411.31-32.1 413.01-32.15L413.01-32.15Q413.16-31.4 413.16-30.83 413.16-30.25 413.06-29.35L413.06-29.35 411.26-29.2Q412.21-25.65 414.41-20.85 416.61-16.05 417.21-14.65L417.21-14.65 417.41-14.65Q418.76-17.25 420.26-21.43 421.76-25.6 422.46-29.2L422.46-29.2Z" opacity="1" transform="matrix(1,0,0,1,0,0)" fill="#0074d9" class="slogan-text-1" data-fill-palette-color="secondary" id="text-1"></path></svg></g></svg></g></svg></g></svg></g><g><svg viewBox="0 0 228.1626102655161 228.1626102655161" height="228.1626102655161" width="228.1626102655161"><g><svg></svg></g><g id="icon-0"><svg viewBox="0 0 228.1626102655161 228.1626102655161" height="228.1626102655161" width="228.1626102655161"><g><path d="M0 114.081c0-63.005 51.076-114.081 114.081-114.081 63.005 0 114.081 51.076 114.082 114.081 0 63.005-51.076 114.081-114.082 114.082-63.005 0-114.081-51.076-114.081-114.082zM114.081 222.3c59.767 0 108.218-48.451 108.219-108.219 0-59.767-48.451-108.218-108.219-108.218-59.767 0-108.218 48.451-108.218 108.218 0 59.767 48.451 108.218 108.218 108.219z" data-fill-palette-color="accent" fill="#fe633d" stroke="transparent"></path><ellipse rx="112.94049208143046" ry="112.94049208143046" cx="114.08130513275805" cy="114.08130513275805" fill="#fe633d" stroke="transparent" stroke-width="0" fill-opacity="1" data-fill-palette-color="accent"></ellipse></g><g transform="matrix(1,0,0,1,47.29988716335531,47.299076247866324)"><svg viewBox="0 0 133.56283593880548 133.56445776978344" height="133.56445776978344" width="133.56283593880548"><g><svg xmlns="http://www.w3.org/2000/svg" xmlns:xlink="http://www.w3.org/1999/xlink" version="1.1" x="0" y="0" viewBox="6.411063194274902 6.960249900817871 86.07770538330078 86.07875061035156" enable-background="new 0 0 100 100" xml:space="preserve" height="133.56445776978344" width="133.56283593880548" class="icon-s-0" data-fill-palette-color="quaternary" id="s-0"><polygon points="23.588,29.899 24.615,47.617 34.551,52.997 34.356,35.067 72.015,18.158 61.858,15.017 " fill="#ffffff" data-fill-palette-color="quaternary"></polygon><path d="M49.45 93.039c-0.419 0-0.837-0.102-1.217-0.307L11.224 72.953c-0.786-0.419-1.297-1.21-1.36-2.097L6.419 22.62c-0.085-1.189 0.655-2.283 1.792-2.647L48.665 7.084c0.512-0.165 1.059-0.165 1.568 0l40.455 12.888c1.139 0.364 1.88 1.458 1.794 2.647l-3.445 48.237c-0.062 0.887-0.574 1.678-1.36 2.097L50.667 92.732C50.287 92.938 49.866 93.039 49.45 93.039L49.45 93.039zM14.917 69.066L49.45 87.523l34.531-18.457 3.2-44.786L49.45 12.258 11.718 24.28 14.917 69.066 14.917 69.066z" fill="#ffffff" data-fill-palette-color="quaternary"></path><path d="M49.45 44.801c-0.388 0-0.778-0.087-1.133-0.262L7.862 24.757C6.58 24.131 6.047 22.582 6.674 21.3c0.627-1.278 2.176-1.813 3.456-1.186L49.45 39.34l39.321-19.226c1.279-0.635 2.828-0.096 3.455 1.186s0.093 2.831-1.188 3.457L50.584 44.54C50.228 44.714 49.838 44.801 49.45 44.801L49.45 44.801z" fill="#ffffff" data-fill-palette-color="quaternary"></path><path d="M49.45 93.039c-1.428 0-2.584-1.16-2.584-2.584V42.217c0-1.427 1.157-2.584 2.584-2.584s2.584 1.157 2.584 2.584v48.238C52.034 91.879 50.878 93.039 49.45 93.039L49.45 93.039z" fill="#ffffff" data-fill-palette-color="quaternary"></path></svg></g></svg></g></svg></g></svg></g></svg></g><defs></defs></svg><rect width="395.52" height="137.90607648659707" fill="none" stroke="none" visibility="hidden"></rect></g></svg></g></svg>